<svg xmlns="http://www.w3.org/2000/svg" version="1.0" width="512.000000pt" height="512.000000pt" viewBox="0 0 512.000000 512.000000" preserveAspectRatio="xMidYMid meet">

<g transform="translate(0.000000,512.000000) scale(0.100000,-0.100000)" fill="#ffffff" stroke="none">
<path d="M1615 4869 c-717 -98 -1296 -800 -1459 -1769 -201 -1190 281 -2386 1106 -2748 297 -131 630 -145 926 -40 334 117 609 349 840 706 l60 93 57 -93 c31 -51 78 -126 103 -167 190 -308 566 -456 922 -362 191 51 278 112 551 388 236 238 261 273 282 397 47 277 -202 526 -479 479 -113 -20 -165 -53 -315 -200 l-136 -133 -101 12 -102 12 -145 241 c-90 149 -153 265 -165 303 -27 87 -35 178 -21 256 7 38 152 453 336 961 178 491 329 914 336 940 26 103 -7 243 -79 339 -80 105 -200 162 -342 160 -100 -1 -166 -24 -248 -85 -80 -61 -113 -121 -203 -369 -45 -124 -89 -233 -98 -242 -9 -10 -30 -20 -46 -24 -43 -8 -72 18 -129 116 -253 435 -635 733 -1046 815 -96 19 -314 27 -405 14z m309 -859 c134 -51 267 -169 379 -336 351 -527 398 -1411 109 -2036 -172 -372 -455 -594 -701 -549 -116 21 -203 72 -317 186 -55 55 -121 132 -146 171 -139 214 -237 496 -280 804 -17 124 -17 496 0 620 52 375 184 705 367 918 186 216 394 294 589 222z" fill="#ffffff"/>
</g>
</svg>