<svg xmlns="http://www.w3.org/2000/svg" version="1.0" width="512.000000pt" height="512.000000pt" viewBox="0 0 512.000000 512.000000" preserveAspectRatio="xMidYMid meet">

<g transform="translate(0.000000,512.000000) scale(0.100000,-0.100000)" fill="#ffffff" stroke="none">
<path d="M2335 5109 c-496 -54 -961 -273 -1321 -622 -141 -136 -221 -231 -318 -376 -263 -392 -390 -840 -373 -1311 12 -336 76 -594 222 -895 148 -308 353 -566 615 -774 99 -79 259 -187 323 -217 l37 -18 0 -123 0 -124 -337 3 -338 3 -51 27 c-89 47 -155 139 -172 241 l-8 42 -147 3 -147 3 0 -486 0 -485 920 0 920 0 0 678 0 677 -69 32 c-414 195 -732 689 -801 1247 -16 130 -13 395 5 522 113 772 640 1324 1265 1324 299 0 574 -121 805 -355 308 -311 475 -748 476 -1243 0 -439 -122 -814 -366 -1128 -120 -153 -315 -312 -459 -375 l-56 -24 0 -677 0 -678 920 0 920 0 0 485 0 486 -147 -3 -147 -3 -8 -42 c-17 -102 -83 -194 -172 -241 l-51 -27 -337 -3 -338 -3 0 123 1 123 81 45 c215 118 453 322 621 533 309 385 477 835 494 1327 21 615 -199 1191 -624 1631 -348 360 -789 589 -1278 664 -131 20 -434 28 -560 14z" fill="#ffffff"/>
</g>
</svg>